<svg xmlns="http://www.w3.org/2000/svg" width="128" height="128" viewBox="0 0 128 128" fill="none">
  <defs>
    <linearGradient id="bg" x1="0" y1="0" x2="1" y2="1">
      <stop offset="0" stop-color="#DCFCE7"/>
      <stop offset="1" stop-color="#4ADE80"/>
    </linearGradient>
    <linearGradient id="leaf" x1="0" y1="0" x2="1" y2="1">
      <stop offset="0" stop-color="#86EFAC"/>
      <stop offset="1" stop-color="#22C55E"/>
    </linearGradient>
  </defs>
  <circle cx="64" cy="64" r="58" fill="url(#bg)"/>
  <circle cx="64" cy="64" r="50" fill="#FFFFFF" opacity="0.18"/>
  <path d="M64 26 C44 40 32 60 32 78 C32 98 46 110 64 110 C82 110 96 98 96 78 C96 60 84 40 64 26 Z" fill="url(#leaf)"/>
  <path d="M64 36 L64 104" stroke="#15803D" stroke-width="6" stroke-linecap="round"/>
  <path d="M64 64 C52 60 44 52 40 42" stroke="#22C55E" stroke-width="5" stroke-linecap="round"/>
  <path d="M64 72 C76 68 84 60 88 50" stroke="#22C55E" stroke-width="5" stroke-linecap="round"/>
  <circle cx="30" cy="36" r="3" fill="#FFFFFF" opacity="0.8"/>
</svg>
